<svg xmlns="http://www.w3.org/2000/svg" viewBox="0 0 64 64">
  <defs>
    <radialGradient id="bg" cx="32" cy="24" r="34" gradientUnits="userSpaceOnUse">
      <stop stop-color="#fff0c9" />
      <stop offset="0.55" stop-color="#f0c46c" />
      <stop offset="1" stop-color="#dca453" />
    </radialGradient>
    <linearGradient id="leftWing" x1="12" x2="32" y1="20" y2="44" gradientUnits="userSpaceOnUse">
      <stop stop-color="#fff7dc" />
      <stop offset="0.5" stop-color="#dca453" />
      <stop offset="1" stop-color="#9b5f20" />
    </linearGradient>
    <linearGradient id="rightWing" x1="32" x2="52" y1="20" y2="44" gradientUnits="userSpaceOnUse">
      <stop stop-color="#f7d989" />
      <stop offset="0.52" stop-color="#dca453" />
      <stop offset="1" stop-color="#8d542d" />
    </linearGradient>
    <filter id="softShadow" x="-20%" y="-20%" width="140%" height="140%">
      <feDropShadow dx="0" dy="3" stdDeviation="3" flood-color="#8d542d" flood-opacity="0.28" />
    </filter>
  </defs>
  <circle cx="32" cy="32" r="30" fill="url(#bg)" />
  <g filter="url(#softShadow)">
    <path
      d="M31 34.4C23.4 24.8 12.6 17.5 8.1 21.5C3.9 25.4 8.7 40 18.1 42.5C23.6 44 28.2 40 31 34.4Z"
      fill="url(#leftWing)"
    />
    <path
      d="M33.6 34.2C42.4 25.1 53.6 20 57 24.5C60.2 29 52.4 42.6 42.9 42.8C37.5 43 34.6 39.2 33.6 34.2Z"
      fill="url(#rightWing)"
    />
    <path d="M31.5 30.3C30.5 25.3 31.8 20.8 33.8 18.6" fill="none" stroke="#8d542d" stroke-linecap="round" stroke-width="3" />
    <path d="M33 30.5C34.8 26 38.2 23 41.2 22" fill="none" stroke="#8d542d" stroke-linecap="round" stroke-width="3" />
    <path d="M31.4 31C30.9 36.8 31.8 42.5 33.5 48" fill="none" stroke="#5f3f2f" stroke-linecap="round" stroke-width="3.2" />
  </g>
</svg>
